<?xml version="1.0" encoding="UTF-8" standalone="no"?><!DOCTYPE svg PUBLIC "-//W3C//DTD SVG 1.1//EN" "http://www.w3.org/Graphics/SVG/1.1/DTD/svg11.dtd"><svg width="100%" height="100%" viewBox="0 0 200 200" version="1.1" xmlns="http://www.w3.org/2000/svg" xmlns:xlink="http://www.w3.org/1999/xlink" xml:space="preserve" xmlns:serif="http://www.serif.com/" style="fill-rule:evenodd;clip-rule:evenodd;stroke-linejoin:round;stroke-miterlimit:2;"><rect id="Artboard1" x="0" y="0" width="200" height="200" style="fill:none;"/><g id="Artboard11" serif:id="Artboard1"><path d="M25.413,127.306c0.141,-21.655 9.24,-48.327 31.002,-68.448c30.081,-27.812 20.994,-55.634 20.994,-55.634c29.168,6.055 56.32,29.837 71.192,64.836c1.27,-6.826 1.619,-14.192 0.813,-21.843c-0,-0 25.589,21.904 25.17,80.904l-0.007,0.696c0,38.06 -33.419,68.959 -74.583,68.959c-41.163,0 -74.583,-30.899 -74.583,-68.959l0.002,-0.511Zm25.414,13.448c1.215,-34.625 44.386,-70.538 53.307,-70.41c-0,-0 -10.192,15.655 20.925,33.073c1.485,0.832 2.763,1.684 3.852,2.556c12.286,8.156 20.277,21.369 20.277,36.271c0,24.748 -22.043,44.841 -49.194,44.841c-27.15,0 -49.194,-20.093 -49.194,-44.841l0.027,-1.49Z" style="fill:#ec6925;"/></g></svg>