<?xml version="1.0" encoding="UTF-8" standalone="no"?><!DOCTYPE svg PUBLIC "-//W3C//DTD SVG 1.1//EN" "http://www.w3.org/Graphics/SVG/1.1/DTD/svg11.dtd"><svg width="100%" height="100%" viewBox="0 0 45 45" version="1.1" xmlns="http://www.w3.org/2000/svg" xmlns:xlink="http://www.w3.org/1999/xlink" xml:space="preserve" xmlns:serif="http://www.serif.com/" style="fill-rule:evenodd;clip-rule:evenodd;stroke-linejoin:round;stroke-miterlimit:2;"><rect id="Artboard2" x="0" y="0" width="45" height="45" style="fill:none;"/><path d="M22.5,5.344c-5.81,0 -10.527,4.717 -10.527,10.527c0,5.81 4.717,10.527 10.527,10.527c5.81,0 10.527,-4.717 10.527,-10.527c-0,-5.81 -4.717,-10.527 -10.527,-10.527Zm0,1.5c4.982,0 9.027,4.045 9.027,9.027c-0,4.982 -4.045,9.027 -9.027,9.027c-4.982,0 -9.027,-4.045 -9.027,-9.027c0,-4.982 4.045,-9.027 9.027,-9.027Z"/><path d="M3.601,38.141c1.852,-5.095 5.707,-9.232 10.611,-11.457c0.241,-0.11 0.521,-0.084 0.738,0.067c2.142,1.49 4.745,2.364 7.55,2.364c2.805,0 5.408,-0.874 7.55,-2.364c0.217,-0.151 0.497,-0.177 0.738,-0.067c4.904,2.225 8.759,6.362 10.611,11.457c-0.367,0.444 -0.75,0.874 -1.147,1.29c-1.549,-4.937 -5.103,-8.99 -9.707,-11.205l0.001,-0c-2.315,1.511 -5.078,2.389 -8.046,2.389c-2.968,0 -5.731,-0.878 -8.045,-2.389c-4.604,2.215 -8.158,6.268 -9.707,11.205c-0.397,-0.416 -0.78,-0.846 -1.147,-1.29Z"/></svg>