<?xml version="1.0" encoding="UTF-8" standalone="no"?><!DOCTYPE svg PUBLIC "-//W3C//DTD SVG 1.1//EN" "http://www.w3.org/Graphics/SVG/1.1/DTD/svg11.dtd"><svg width="100%" height="100%" viewBox="0 0 200 200" version="1.1" xmlns="http://www.w3.org/2000/svg" xmlns:xlink="http://www.w3.org/1999/xlink" xml:space="preserve" xmlns:serif="http://www.serif.com/" style="fill-rule:evenodd;clip-rule:evenodd;stroke-linejoin:round;stroke-miterlimit:2;"><rect id="Artboard2" x="0" y="0" width="200" height="200" style="fill:none;"/><path d="M178.588,35.995l-10.476,-1.227l-7.07,4.644l-1.897,-5.694l-95.687,-11.204l-2.765,2.903c0,0 -3.055,-2.019 -4.259,0.626c-5.099,11.207 -17.509,43.463 -7.654,73.957c0.574,1.774 5.697,7.838 5.947,9.936c0.221,1.851 -4.398,-0.296 -4.391,1.745c0.072,20.005 -9.671,41.875 -11.568,49.603c-2.311,9.409 107.06,11.463 107.06,11.463c14.07,-0.232 26.754,-39.138 21.04,-67.509c-0.315,-1.562 -3.971,-3.934 -4.397,-5.465c-0.427,-1.531 2.376,-2.221 1.832,-3.709c-10.31,-28.204 14.285,-60.069 14.285,-60.069Zm-111.062,88.319c-2.106,-0.348 -4.244,0.37 -6.124,1.93c-2.608,2.166 -4.734,5.995 -5.493,10.592c-0.76,4.597 0.021,8.906 1.795,11.796c1.278,2.082 3.071,3.449 5.178,3.797c2.106,0.348 4.244,-0.37 6.124,-1.93c2.608,-2.166 4.734,-5.994 5.493,-10.592c0.76,-4.597 -0.021,-8.906 -1.795,-11.795c-1.278,-2.083 -3.071,-3.45 -5.178,-3.798l0,0Zm-0.326,1.974c1.562,0.258 2.852,1.325 3.8,2.87c1.566,2.551 2.196,6.364 1.526,10.423c-0.671,4.059 -2.495,7.467 -4.798,9.379c-1.394,1.157 -2.958,1.754 -4.52,1.496c-1.562,-0.259 -2.852,-1.326 -3.8,-2.871c-1.566,-2.551 -2.196,-6.364 -1.526,-10.423c0.671,-4.059 2.495,-7.467 4.798,-9.379c1.394,-1.157 2.958,-1.753 4.52,-1.495l0,-0Zm12.059,13.581c1.369,0.01 2.723,-0.023 4.063,-0.1c0.551,-0.031 0.973,-0.504 0.941,-1.055c-0.032,-0.551 -0.505,-0.973 -1.056,-0.941c-1.297,0.074 -2.608,0.105 -3.933,0.096c-0.552,-0.004 -1.003,0.44 -1.008,0.992c-0.004,0.552 0.441,1.004 0.993,1.008Zm10.133,-0.779c1.348,-0.229 2.679,-0.51 3.992,-0.846c0.535,-0.136 0.858,-0.681 0.721,-1.216c-0.137,-0.535 -0.682,-0.858 -1.216,-0.721c-1.26,0.322 -2.538,0.592 -3.832,0.811c-0.544,0.093 -0.911,0.609 -0.819,1.154c0.093,0.544 0.609,0.911 1.154,0.818Zm35.936,-29.31c-1.993,-0.518 -4.123,0.022 -6.086,1.434c-2.697,1.942 -5.098,5.573 -6.268,10.076c-1.17,4.504 -0.842,8.844 0.57,11.854c1.026,2.188 2.624,3.697 4.617,4.215c1.993,0.518 4.124,-0.022 6.086,-1.434c2.698,-1.942 5.098,-5.573 6.268,-10.076c1.17,-4.504 0.842,-8.844 -0.569,-11.853c-1.027,-2.189 -2.625,-3.698 -4.618,-4.216Zm-26.119,26.559c1.26,-0.509 2.499,-1.076 3.719,-1.704c0.491,-0.253 0.684,-0.857 0.431,-1.347c-0.253,-0.491 -0.857,-0.684 -1.347,-0.431c-1.165,0.6 -2.349,1.142 -3.552,1.627c-0.511,0.207 -0.759,0.79 -0.553,1.302c0.207,0.511 0.79,0.759 1.302,0.553Zm25.616,-24.623c1.452,0.377 2.562,1.534 3.31,3.129c1.25,2.665 1.481,6.512 0.444,10.501c-1.036,3.988 -3.111,7.236 -5.5,8.956c-1.43,1.028 -2.963,1.499 -4.415,1.122c-1.452,-0.378 -2.562,-1.535 -3.31,-3.13c-1.25,-2.665 -1.481,-6.512 -0.444,-10.501c1.036,-3.988 3.111,-7.236 5.501,-8.956c1.429,-1.028 2.962,-1.499 4.414,-1.121Zm-16.653,19.74c0.381,-0.268 0.759,-0.543 1.135,-0.825c0.441,-0.331 0.531,-0.958 0.2,-1.4c-0.332,-0.441 -0.959,-0.531 -1.401,-0.199c-0.359,0.269 -0.721,0.532 -1.085,0.788c-0.451,0.318 -0.56,0.942 -0.242,1.394c0.318,0.451 0.942,0.559 1.393,0.242Zm1.42,-16.056c-0.637,-1.215 -1.381,-2.384 -2.227,-3.51c-0.331,-0.441 -0.959,-0.53 -1.4,-0.198c-0.441,0.331 -0.53,0.959 -0.198,1.4c0.78,1.038 1.466,2.116 2.054,3.237c0.256,0.489 0.861,0.678 1.35,0.421c0.489,-0.256 0.678,-0.861 0.421,-1.35Zm-38.886,-20.655l-5.496,-9.846l-1.959,2.695l5.496,9.846l-6.271,8.629l1.716,3.076l6.271,-8.629l5.496,9.846l1.959,-2.695l-5.496,-9.846l6.271,-8.63l-1.716,-3.075l-6.271,8.629Zm32.45,12.609c-0.993,-0.885 -2.061,-1.74 -3.2,-2.563c-0.448,-0.323 -1.073,-0.223 -1.397,0.224c-0.323,0.448 -0.222,1.073 0.225,1.397c1.082,0.782 2.097,1.593 3.041,2.435c0.412,0.367 1.045,0.331 1.412,-0.081c0.367,-0.412 0.331,-1.044 -0.081,-1.412Zm-8.368,-5.832c-1.153,-0.642 -2.356,-1.262 -3.607,-1.863c-0.498,-0.238 -1.096,-0.028 -1.334,0.469c-0.239,0.498 -0.029,1.096 0.469,1.335c1.213,0.582 2.381,1.184 3.499,1.807c0.483,0.268 1.092,0.095 1.36,-0.387c0.269,-0.483 0.095,-1.092 -0.387,-1.361Zm-8.668,-2.865c0.395,-0.032 0.787,-0.067 1.178,-0.104c0.549,-0.053 0.953,-0.541 0.901,-1.09c-0.053,-0.55 -0.541,-0.954 -1.091,-0.901c-0.956,0.091 -1.925,0.168 -2.907,0.23c-0.469,0.03 -0.854,0.383 -0.925,0.848c-0.07,0.465 0.193,0.917 0.632,1.085c0.326,0.124 0.65,0.25 0.971,0.376c0.473,0.186 1.002,-0.012 1.241,-0.444Zm7.197,-0.89c1.355,-0.227 2.681,-0.487 3.979,-0.778c0.538,-0.121 0.877,-0.656 0.756,-1.195c-0.121,-0.538 -0.656,-0.877 -1.195,-0.756c-1.262,0.283 -2.553,0.536 -3.871,0.757c-0.544,0.092 -0.912,0.608 -0.821,1.152c0.092,0.544 0.608,0.912 1.152,0.82Zm9.855,-2.381c1.309,-0.426 2.584,-0.889 3.824,-1.391c0.512,-0.208 0.759,-0.791 0.552,-1.303c-0.207,-0.511 -0.79,-0.758 -1.302,-0.551c-1.197,0.484 -2.428,0.932 -3.692,1.342c-0.525,0.171 -0.813,0.736 -0.642,1.261c0.17,0.524 0.735,0.812 1.26,0.642Zm9.35,-4.009c1.204,-0.661 2.369,-1.367 3.493,-2.116c0.46,-0.307 0.584,-0.928 0.278,-1.387c-0.307,-0.459 -0.928,-0.584 -1.387,-0.277c-1.078,0.718 -2.193,1.394 -3.347,2.028c-0.484,0.265 -0.66,0.874 -0.395,1.357c0.266,0.484 0.874,0.661 1.358,0.395Zm17.829,-17.441l-5.495,-9.846l-1.959,2.695l5.496,9.847l-6.271,8.629l1.716,3.075l6.271,-8.629l5.496,9.846l1.958,-2.695l-5.495,-9.846l6.271,-8.629l-1.717,-3.076l-6.271,8.629Zm-16.089,-8.723c0.926,0.891 1.863,1.825 2.816,2.799c0.386,0.394 1.019,0.401 1.414,0.015c0.394,-0.386 0.401,-1.019 0.015,-1.414c-0.967,-0.988 -1.918,-1.937 -2.858,-2.841c-0.398,-0.382 -1.031,-0.37 -1.414,0.027c-0.383,0.398 -0.37,1.032 0.027,1.414Zm-37.49,-27.86c-2.088,-0.446 -4.257,0.169 -6.208,1.64c-2.708,2.04 -5.011,5.764 -5.986,10.321c-0.976,4.557 -0.398,8.898 1.237,11.867c1.179,2.14 2.906,3.59 4.993,4.037c2.088,0.447 4.257,-0.169 6.209,-1.64c2.707,-2.04 5.01,-5.764 5.986,-10.321c0.975,-4.556 0.398,-8.897 -1.238,-11.867c-1.179,-2.14 -2.906,-3.59 -4.993,-4.037l-0,0Zm-0.419,1.956c1.548,0.331 2.786,1.459 3.66,3.046c1.444,2.622 1.895,6.46 1.034,10.484c-0.861,4.023 -2.843,7.341 -5.234,9.142c-1.447,1.09 -3.038,1.612 -4.586,1.281c-1.548,-0.331 -2.786,-1.459 -3.66,-3.046c-1.444,-2.622 -1.895,-6.46 -1.034,-10.483c0.861,-4.024 2.844,-7.342 5.234,-9.143c1.447,-1.09 3.038,-1.612 4.586,-1.281l0,0Zm30.38,19.592c1.039,0.714 2.077,1.504 3.122,2.361c0.426,0.35 1.057,0.288 1.407,-0.139c0.35,-0.426 0.288,-1.057 -0.138,-1.407c-1.09,-0.894 -2.173,-1.718 -3.258,-2.463c-0.455,-0.313 -1.078,-0.198 -1.39,0.257c-0.313,0.455 -0.198,1.078 0.257,1.391Zm-8.675,-4.03c1.231,0.283 2.435,0.684 3.624,1.194c0.507,0.217 1.095,-0.018 1.313,-0.525c0.217,-0.508 -0.018,-1.096 -0.525,-1.314c-1.3,-0.557 -2.618,-0.995 -3.965,-1.304c-0.538,-0.123 -1.075,0.213 -1.198,0.751c-0.124,0.538 0.213,1.075 0.751,1.198Zm-9.453,0.144c1.302,-0.311 2.56,-0.505 3.783,-0.587c0.551,-0.037 0.968,-0.514 0.931,-1.064c-0.037,-0.551 -0.514,-0.968 -1.065,-0.931c-1.33,0.089 -2.698,0.298 -4.114,0.636c-0.536,0.129 -0.868,0.669 -0.74,1.205c0.129,0.537 0.668,0.869 1.205,0.741Z" style="fill:#b6a77e;"/><path d="M30.295,136.804l84.143,8.666l3.128,5.526l7.799,-4.124l19.169,1.167c-8.053,15.38 -8.539,24.39 2.578,24.708c-36.37,0.106 -73.419,-1.692 -111.98,-7.723c-8.758,-1.369 -10.475,-10.408 -4.837,-28.22Z" style="fill:#5e5335;"/></svg>